<svg id="Lager_1" data-name="Lager 1" xmlns="http://www.w3.org/2000/svg" viewBox="0 0 329.82 98.04"><defs><style>.cls-1{fill:#fff;}</style></defs><title>logo</title><path d="M24,8c13.56,0,21.24,7.26,21.24,19.92S37.54,47.86,24,47.86H8V8Zm-.54,31.92c8.34,0,12.78-4.2,12.78-12s-4.44-12-12.78-12h-6.6v24Z" transform="translate(-5.56 -7.42)"/><path d="M81.28,31.6H64.66v8.34H85.6v7.92H55.78V8H85.6v7.92H64.66v8.22H81.28Z" transform="translate(-5.56 -7.42)"/><path d="M124.06,10.36v9.18h-.42c-2.64-2.7-7.14-4.26-12.18-4.26-4.38,0-7.14,1.68-7.14,4.38,0,2.28,1.74,3.3,7.68,4,10.5,1.14,14.46,4.74,14.46,12.36,0,8-5.76,12.48-16,12.48-6.54,0-11.64-1.2-14.82-3.48V35.8h.42a21.8,21.8,0,0,0,14.1,4.8c4.86,0,7.44-1.5,7.44-4.38,0-2.4-1.86-3.48-7.92-4.14C99.46,30.94,95.5,27.52,95.5,20.2c0-8,6-12.78,16.08-12.78C116.56,7.42,121.6,8.62,124.06,10.36Z" transform="translate(-5.56 -7.42)"/><path d="M137.14,8H146V47.86h-8.88Z" transform="translate(-5.56 -7.42)"/><path d="M165.64,27.94c0,7.68,5.34,12.6,13.56,12.6a23.48,23.48,0,0,0,5.16-.54V33.22H175.6V25.78h17.34V45.34c-3.78,2.16-8.16,3.12-14.1,3.12-13.56,0-22.2-8-22.2-20.52s8.64-20.52,22.2-20.52c5.94,0,10.32,1,14.1,3.12v9.72h-.42c-3.48-3.36-7.92-4.92-13.32-4.92C171,15.34,165.64,20.26,165.64,27.94Z" transform="translate(-5.56 -7.42)"/><path d="M214.24,18.28h-.12V47.86h-8.58V8h12.18l15.06,26.76h.12V8h8.58V47.86H230.8Z" transform="translate(-5.56 -7.42)"/><path d="M39.1,67.54v9.72h-.42c-2.52-3.18-6.54-4.92-11.4-4.92-7.68,0-12.72,5-12.72,12.6s5,12.6,12.72,12.6c4.8,0,8.88-1.68,11.4-4.92h.42v9.72c-3.18,2.1-6.78,3.12-12.24,3.12-12.72,0-21.3-8.52-21.3-20.52s8.58-20.52,21.3-20.52C32.38,64.42,35.92,65.38,39.1,67.54Z" transform="translate(-5.56 -7.42)"/><path d="M90.16,84.94c0,12-8.64,20.52-20.94,20.52S48.28,96.94,48.28,84.94s8.64-20.52,20.94-20.52S90.16,72.94,90.16,84.94Zm-32.88,0c0,7.44,4.86,12.6,11.94,12.6s11.94-5.16,11.94-12.6-4.86-12.6-11.94-12.6S57.28,77.5,57.28,84.94Z" transform="translate(-5.56 -7.42)"/><path d="M140.32,104.86v-30h-.12l-11.52,30h-8L109.48,75.7h-.12v29.16h-8.58V65H114.1L124.78,92.8h.12L135.58,65H149.2v39.84Z" transform="translate(-5.56 -7.42)"/><path d="M179.8,65c10,0,15.06,4.5,15.06,13.26s-5.1,13.2-15.06,13.2h-8.7v13.38h-8.88V65Zm-.42,18.54c4.44,0,6.48-1.68,6.48-5.28s-2-5.34-6.48-5.34H171.1V83.56Z" transform="translate(-5.56 -7.42)"/><path d="M227.14,98.14h-18.3l-2.7,6.72h-9.3l17-39.84h8.58l17,39.84h-9.54ZM217.9,75.22l-6.06,15.3h12.3L218,75.22Z" transform="translate(-5.56 -7.42)"/><path d="M257.68,75.28h-.12v29.58H249V65h12.18l15.06,26.76h.12V65h8.58v39.84H274.24Z" transform="translate(-5.56 -7.42)"/><path d="M310.24,104.86V88.54L293.92,65h10.74L314.8,80.44,324.94,65h10.44L319.12,88.54v16.32Z" transform="translate(-5.56 -7.42)"/><rect x="249.44" y="0.58" width="80" height="39.8"/><path class="cls-1" d="M268.83,17.4v1.38h-.06a2.54,2.54,0,0,0-1.83-.64c-.65,0-1.07.25-1.07.65s.26.5,1.16.6c1.57.17,2.17.71,2.17,1.85s-.87,1.88-2.4,1.88a3.8,3.8,0,0,1-2.22-.53V21.22h.06a3.33,3.33,0,0,0,2.12.72c.72,0,1.11-.23,1.11-.66s-.28-.52-1.19-.62c-1.54-.17-2.13-.69-2.13-1.78S265.45,17,267,17A3.6,3.6,0,0,1,268.83,17.4Z" transform="translate(-5.56 -7.42)"/><path class="cls-1" d="M273.43,23H272.1V18.24h-1.78V17.05h4.89v1.19h-1.78Z" transform="translate(-5.56 -7.42)"/><path class="cls-1" d="M282.57,20A3.14,3.14,0,1,1,279.43,17,3,3,0,0,1,282.57,20Zm-4.93,0a1.79,1.79,0,1,0,3.58,0,1.79,1.79,0,1,0-3.58,0Z" transform="translate(-5.56 -7.42)"/><path class="cls-1" d="M288.83,17.43v1.45h-.06a2.12,2.12,0,0,0-1.71-.73A1.79,1.79,0,0,0,285.15,20a1.8,1.8,0,0,0,1.91,1.89,2.08,2.08,0,0,0,1.71-.74h.06v1.46a3.11,3.11,0,0,1-1.83.47A3.08,3.08,0,1,1,287,17,3,3,0,0,1,288.83,17.43Z" transform="translate(-5.56 -7.42)"/><path class="cls-1" d="M291.9,23h-1.33v-6h1.33v2.51l2.2-2.51h1.68L293.11,20,295.87,23h-1.75l-2.22-2.54Z" transform="translate(-5.56 -7.42)"/><path class="cls-1" d="M301.29,23V20.61h-2.66V23H297.3v-6h1.33v2.37h2.66V17.05h1.34v6Z" transform="translate(-5.56 -7.42)"/><path class="cls-1" d="M310.5,20A3.14,3.14,0,1,1,307.36,17,3,3,0,0,1,310.5,20Zm-4.93,0a1.79,1.79,0,1,0,3.58,0,1.79,1.79,0,1,0-3.58,0Z" transform="translate(-5.56 -7.42)"/><path class="cls-1" d="M312.1,23v-6h1.33v4.79h3V23Z" transform="translate(-5.56 -7.42)"/><path class="cls-1" d="M323.92,23V18.52h0L322.18,23H321l-1.67-4.38h0V23H318v-6h2l1.6,4.17h0l1.6-4.17h2.05v6Z" transform="translate(-5.56 -7.42)"/><path class="cls-1" d="M268.83,31.4v1.38h-.06a2.54,2.54,0,0,0-1.83-.64c-.65,0-1.07.25-1.07.65s.26.5,1.16.6c1.57.17,2.17.71,2.17,1.85s-.87,1.88-2.4,1.88a3.8,3.8,0,0,1-2.22-.53V35.22h.06a3.33,3.33,0,0,0,2.12.72c.72,0,1.11-.23,1.11-.66s-.28-.52-1.19-.62c-1.54-.17-2.13-.69-2.13-1.78S265.45,31,267,31A3.6,3.6,0,0,1,268.83,31.4Z" transform="translate(-5.56 -7.42)"/><path class="cls-1" d="M275.86,34.48a2.6,2.6,0,1,1-5.2,0V31.05H272v3.34c0,1,.44,1.54,1.29,1.54s1.3-.52,1.3-1.54V31.05h1.28Z" transform="translate(-5.56 -7.42)"/><path class="cls-1" d="M279,32.59h0V37h-1.29v-6h1.83l2.26,4h0v-4h1.28v6h-1.6Z" transform="translate(-5.56 -7.42)"/><path class="cls-1" d="M287.43,31.05c2,0,3.19,1.09,3.19,3s-1.16,3-3.19,3H285v-6Zm-.08,4.79c1.25,0,1.92-.63,1.92-1.8s-.67-1.8-1.92-1.8h-1v3.6Z" transform="translate(-5.56 -7.42)"/><path class="cls-1" d="M296.22,31.4v1.38h-.06a2.56,2.56,0,0,0-1.83-.64c-.66,0-1.07.25-1.07.65s.26.5,1.15.6c1.58.17,2.17.71,2.17,1.85s-.86,1.88-2.39,1.88a3.86,3.86,0,0,1-2.23-.53V35.22H292a3.28,3.28,0,0,0,2.11.72c.73,0,1.12-.23,1.12-.66s-.28-.52-1.19-.62c-1.54-.17-2.13-.69-2.13-1.78s.9-1.92,2.41-1.92A3.63,3.63,0,0,1,296.22,31.4Z" transform="translate(-5.56 -7.42)"/><path class="cls-1" d="M299.87,37l-2.35-6H299l1.59,4.26h0l1.58-4.26h1.4l-2.36,6Z" transform="translate(-5.56 -7.42)"/><path class="cls-1" d="M308.29,36h-2.75l-.4,1h-1.4l2.55-6h1.29l2.55,6h-1.44Zm-1.39-3.44L306,34.87h1.85l-.92-2.29Z" transform="translate(-5.56 -7.42)"/><path class="cls-1" d="M311.56,37v-6h1.34v4.79h3V37Z" transform="translate(-5.56 -7.42)"/><path class="cls-1" d="M317.46,37v-6h1.33v4.79h3V37Z" transform="translate(-5.56 -7.42)"/></svg>